HIERARCHY
ROOT hip
{
  OFFSET 0 0 0
  CHANNELS 6 Xposition Yposition Zposition Zrotation Yrotation Xrotation
  JOINT abdomen
  {
    OFFSET 0 20.6881 -0.73152
    CHANNELS 3 Zrotation Xrotation Yrotation
    JOINT chest
    {
      OFFSET 0 11.7043 -0.48768
      CHANNELS 3 Zrotation Xrotation Yrotation
      JOINT neck
      {
        OFFSET 0 22.1894 -2.19456
        CHANNELS 3 Zrotation Xrotation Yrotation
        JOINT head
        {
          OFFSET -0.24384 7.07133 1.2192
          CHANNELS 3 Zrotation Xrotation Yrotation
          JOINT leftEye
          {
            OFFSET 4.14528 8.04674 8.04672
            CHANNELS 3 Zrotation Xrotation Yrotation
            End Site
            {
              OFFSET 1 0 0
            }
          }
          JOINT rightEye
          {
            OFFSET -3.6576 8.04674 8.04672
            CHANNELS 3 Zrotation Xrotation Yrotation
            End Site
            {
              OFFSET 1 0 0
            }
          }
        }
      }
      JOINT rCollar
      {
        OFFSET -2.68224 19.2634 -4.8768
        CHANNELS 3 Zrotation Xrotation Yrotation
        JOINT rShldr
        {
          OFFSET -8.77824 -1.95073 1.46304
          CHANNELS 3 Zrotation Xrotation Yrotation
          JOINT rForeArm
          {
            OFFSET -28.1742 -1.7115 0.48768
            CHANNELS 3 Zrotation Xrotation Yrotation
            JOINT rHand
            {
              OFFSET -22.5879 0.773209 7.07136
              CHANNELS 3 Zrotation Xrotation Yrotation
              JOINT rThumb1
              {
                OFFSET -1.2192 -0.487915 3.41376
                CHANNELS 3 Zrotation Xrotation Yrotation
                JOINT rThumb2
                {
                  OFFSET -3.37035 -0.52449 3.41376
                  CHANNELS 3 Zrotation Xrotation Yrotation
                  End Site
                  {
                    OFFSET -1.78271 -1.18214 1.43049
                  }
                }
              }
              JOINT rIndex1
              {
                OFFSET -7.75947 0.938293 5.60832
                CHANNELS 3 Zrotation Xrotation Yrotation
                JOINT rIndex2
                {
                  OFFSET -2.54057 -0.884171 1.56538
                  CHANNELS 3 Zrotation Xrotation Yrotation
                  End Site
                  {
                    OFFSET -1.62519 -0.234802 1.16502
                  }
                }
              }
              JOINT rMid1
              {
                OFFSET -8.24714 1.18213 3.41376
                CHANNELS 3 Zrotation Xrotation Yrotation
                JOINT rMid2
                {
                  OFFSET -3.10165 -0.590103 1.0647
                  CHANNELS 3 Zrotation Xrotation Yrotation
                  End Site
                  {
                    OFFSET -2.48547 -0.328903 0.83742
                  }
                }
              }
              JOINT rRing1
              {
                OFFSET -8.82822 0.546677 1.51678
                CHANNELS 3 Zrotation Xrotation Yrotation
                JOINT rRing2
                {
                  OFFSET -2.60934 -0.819778 -0.0198488
                  CHANNELS 3 Zrotation Xrotation Yrotation
                  End Site
                  {
                    OFFSET -2.33842 -0.294052 0.168128
                  }
                }
              }
              JOINT rPinky1
              {
                OFFSET -8.27202 -0.0477905 -0.4584
                CHANNELS 3 Zrotation Xrotation Yrotation
                JOINT rPinky2
                {
                  OFFSET -1.82734 -0.647385 -0.700984
                  CHANNELS 3 Zrotation Xrotation Yrotation
                  End Site
                  {
                    OFFSET -1.69225 -0.51767 -0.607171
                  }
                }
              }
            }
          }
        }
      }
      JOINT lCollar
      {
        OFFSET 2.68224 19.2634 -4.8768
        CHANNELS 3 Zrotation Xrotation Yrotation
        JOINT lShldr
        {
          OFFSET 8.77824 -1.95073 1.46304
          CHANNELS 3 Zrotation Xrotation Yrotation
          JOINT lForeArm
          {
            OFFSET 28.1742 -1.7115 0.48768
            CHANNELS 3 Zrotation Xrotation Yrotation
            JOINT lHand
            {
              OFFSET 22.5879 0.773209 7.07136
              CHANNELS 3 Zrotation Xrotation Yrotation
              JOINT lThumb1
              {
                OFFSET 1.2192 -0.487915 3.41376
                CHANNELS 3 Zrotation Xrotation Yrotation
                JOINT lThumb2
                {
                  OFFSET 3.37035 -0.52449 3.41376
                  CHANNELS 3 Zrotation Xrotation Yrotation
                  End Site
                  {
                    OFFSET 1.78271 -1.18214 1.43049
                  }
                }
              }
              JOINT lIndex1
              {
                OFFSET 7.75947 0.938293 5.60832
                CHANNELS 3 Zrotation Xrotation Yrotation
                JOINT lIndex2
                {
                  OFFSET 2.54057 -0.884171 1.56538
                  CHANNELS 3 Zrotation Xrotation Yrotation
                  End Site
                  {
                    OFFSET 1.62519 -0.234802 1.16502
                  }
                }
              }
              JOINT lMid1
              {
                OFFSET 8.24714 1.18213 3.41376
                CHANNELS 3 Zrotation Xrotation Yrotation
                JOINT lMid2
                {
                  OFFSET 3.10165 -0.590103 1.0647
                  CHANNELS 3 Zrotation Xrotation Yrotation
                  End Site
                  {
                    OFFSET 2.48547 -0.328903 0.83742
                  }
                }
              }
              JOINT lRing1
              {
                OFFSET 8.82822 0.546677 1.51678
                CHANNELS 3 Zrotation Xrotation Yrotation
                JOINT lRing2
                {
                  OFFSET 2.60934 -0.819778 -0.0198488
                  CHANNELS 3 Zrotation Xrotation Yrotation
                  End Site
                  {
                    OFFSET 2.33842 -0.294052 0.168128
                  }
                }
              }
              JOINT lPinky1
              {
                OFFSET 8.27202 -0.0477905 -0.4584
                CHANNELS 3 Zrotation Xrotation Yrotation
                JOINT lPinky2
                {
                  OFFSET 1.82734 -0.647385 -0.700984
                  CHANNELS 3 Zrotation Xrotation Yrotation
                  End Site
                  {
                    OFFSET 1.69225 -0.51767 -0.607171
                  }
                }
              }
            }
          }
        }
      }
    }
  }
  JOINT rButtock
  {
    OFFSET -8.77824 4.35084 1.2192
    CHANNELS 3 Zrotation Xrotation Yrotation
    JOINT rThigh
    {
      OFFSET 0 -1.70687 -2.19456
      CHANNELS 3 Zrotation Xrotation Yrotation
      JOINT rShin
      {
        OFFSET 0 -36.8199 0.73152
        CHANNELS 3 Zrotation Xrotation Yrotation
        JOINT rFoot
        {
          OFFSET 0.73152 -45.1104 -5.12064
          CHANNELS 3 Zrotation Xrotation Yrotation
          End Site
          {
            OFFSET -1.1221 -3.69964 12.103
          }
        }
      }
    }
  }
  JOINT lButtock
  {
    OFFSET 8.77824 4.35084 1.2192
    CHANNELS 3 Zrotation Xrotation Yrotation
    JOINT lThigh
    {
      OFFSET 0 -1.70687 -2.19456
      CHANNELS 3 Zrotation Xrotation Yrotation
      JOINT lShin
      {
        OFFSET 0 -36.8199 0.73152
        CHANNELS 3 Zrotation Xrotation Yrotation
        JOINT lFoot
        {
          OFFSET -0.73152 -45.1104 -5.12064
          CHANNELS 3 Zrotation Xrotation Yrotation
          End Site
          {
            OFFSET 1.1221 -3.69964 12.103
          }
        }
      }
    }
  }
}
MOTION
Frames:	5
Frame Time:	0.03333
0.0 0.0 0.0 0.0 0.0 0.0 0.0 0.0 0.0 0.0 0.0 0.0 0.0 0.0 0.0 0.0 0.0 0.0 0.0 0.0 0.0 0.0 0.0 0.0 0.0 0.0 0.0 0.0 0.0 0.0 0.0 0.0 0.0 0.0 0.0 0.0 0.0 0.0 0.0 0.0 0.0 0.0 0.0 0.0 0.0 0.0 0.0 0.0 0.0 0.0 0.0 0.0 0.0 0.0 0.0 0.0 0.0 0.0 0.0 0.0 0.0 0.0 0.0 0.0 0.0 0.0 0.0 0.0 0.0 0.0 0.0 0.0 0.0 0.0 0.0 0.0 0.0 0.0 0.0 0.0 0.0 0.0 0.0 0.0 0.0 0.0 0.0 0.0 0.0 0.0 0.0 0.0 0.0 0.0 0.0 0.0 0.0 0.0 0.0 0.0 0.0 0.0 0.0 0.0 0.0 0.0 0.0 0.0 0.0 0.0 0.0 0.0 0.0 0.0 0.0 0.0 0.0 0.0 0.0 0.0 0.0 0.0 0.0 0.0 0.0 0.0 0.0 0.0 0.0 0.0 0.0 0.0
2.8305000000000002 69.5802 2.2668 173.974029 85.310891 165.455246 -7.215879 15.483436 -139.035288 -1.582289 5.922246 140.125673 8.02092 22.937421 83.441855 -32.584853 5.378333 -113.862547 0.003096 -0.0 -0.002297 0.003652 0.0 0.0028 1.673187 -11.473114 -2.382532 70.731446 55.37878 -16.442841 -151.496843 42.568657 1.233043 166.672038 -37.896206 140.317482 -155.286811 6.757816 87.78376 -164.634505 -9.925701 80.644513 -17.837973 22.869965 12.333015 121.60289 -61.535542 66.500818 -45.136345 55.777832 38.394239 -86.25797 64.10368 78.27264 -145.110697 -0.764604 -178.888964 -142.965731 -54.60428 -165.237873 -73.223588 -51.777445 -71.716958 -124.769849 -31.835038 -123.872745 156.054365 -7.263988 -162.617326 64.84234 11.760791 -24.223717 172.305439 1.686867 78.134839 8.690941 -17.133302 5.061571 163.17551 -0.856582 -89.392885 -100.71724 -60.971734 -73.015488 80.986586 42.700974 -67.523411 -36.897204 -44.296979 -1.60746 175.880525 -50.570548 -144.055458 -17.590994 -40.998913 -0.08236 0.001502 -0.096473 0.030278 153.906057 15.705069 -169.655645 145.322411 12.538649 141.954686 -4.514424 5.808006 0.3093 179.996085 75.748735 0.003432 160.177474 21.843681 -89.767724 -61.658325 -15.182484 -82.975405 41.877453 7.35969 -160.54754 179.997772 75.750222 0.001907 -122.101263 76.290109 121.461169 15.032109 -60.769051 68.10838 100.404994 -1.447733 153.442572
4.0264 68.8056 3.5930999999999997 165.205392 85.642204 158.485307 -7.641028 18.617679 0.56 5.577921 -8.566641 1.825488 7.09133 30.844171 128.73295 -28.462028 31.031573 -153.097926 0.004452 -0.0 -0.00013 -0.001873 0.0 -0.004599 0.891356 -5.720877 -1.226093 -100.782365 -59.907123 -161.499393 27.506481 -79.795553 -133.073694 177.166624 -8.077652 143.709853 -169.141411 -6.820726 89.91615 121.764127 -58.2562 87.455789 -149.581982 -13.881825 120.512284 -164.769754 -21.988114 119.395303 -149.592556 21.78397 136.120975 -16.648858 40.38945 13.594052 0.004439 1.745685 0.548458 -68.497054 -86.857726 -89.943049 -7.33269 -16.04989 -6.90684 -154.496857 38.818873 -148.584456 -1.917287 -69.477662 16.159862 80.93287 -29.809597 85.091591 -83.369723 -30.003355 128.198461 68.097638 58.76624 -46.853552 142.662647 17.513355 -83.308731 129.906064 -2.829703 -64.147813 164.908561 -41.096822 -122.405529 54.968535 56.57336 -41.791099 9.380032 22.801268 -6.386128 -0.701837 7.502422 -1.156922 145.080383 -2.539865 178.329643 11.278554 -65.299368 32.561316 154.393171 46.017928 149.050739 -1.563603 -0.372943 1.915733 -179.996293 75.748082 -0.003613 161.694837 16.853795 -154.173237 -26.210633 -55.76623 -125.407011 -140.286672 -3.375169 87.264849 -0.000881 9.3e-05 9.6e-05 11.819914 4.702886 140.991506 39.719461 -44.999126 -83.14773 99.657598 -18.853418 4.126918
5.237 68.0481 4.6362 -176.733141 88.114856 177.273758 -5.171393 14.181659 -148.917409 -0.422084 5.755201 151.202714 7.483654 30.401495 124.842732 -30.218879 29.660995 -148.794754 -0.000645 0.0 -0.003149 2e-05 0.0 0.00192 3.018593 -23.869044 -4.713393 -132.993831 30.545538 -162.134425 -154.993419 -10.472573 -53.692051 1.039187 -12.341487 -1.097277 -0.768764 0.757407 0.122567 161.473606 -81.648668 85.947999 -88.770782 41.400411 74.49812 7.72647 -2.831695 -5.474364 -152.697291 15.095332 138.4221 44.977859 -70.289485 19.216209 -145.120468 0.48226 -179.281692 8.492806 -15.996794 -11.26508 -146.820995 17.457547 -143.264053 -5.714075 -16.867325 -8.562808 32.505014 59.664045 -34.969766 -80.662048 -5.89146 -37.942796 5.440621 6.8071 -105.42814 7.518707 -24.268144 6.009767 -33.704594 -30.927522 -4.456647 88.197269 36.395292 -68.032693 44.97573 39.256878 -35.230902 -150.671791 -55.497956 -91.742449 179.221339 -56.754477 -142.529508 173.552247 -34.310019 -143.522543 0.006053 -0.733707 0.23048 156.269103 -19.354163 -174.12844 1.177934 -2.983333 1.09381 167.810748 73.570813 147.760001 -0.1394 7.6e-05 -0.106843 -29.535643 -56.953575 -168.756063 -36.478794 -48.798092 155.541039 88.287319 -33.605151 -21.502071 -179.943906 75.751218 -0.042595 -125.423614 75.074319 2.912238 49.255995 33.522934 -123.171982 29.47366 -2.839121 90.949673
6.4314 67.7195 5.4268 -62.076658 89.427147 -68.069238 -5.112865 14.87305 -173.524725 -2.919745 4.933832 177.308577 7.132469 31.608362 132.575162 -27.952316 33.948333 -155.466461 0.000836 -0.0 -0.004318 0.000836 -0.0 -0.004318 -25.211495 55.083625 27.497629 -111.927032 13.392786 132.122827 2.007493 -40.964744 -151.514053 171.342242 -20.04985 143.136356 -21.130421 18.628556 6.614436 -72.639409 16.15526 69.356131 9.055835 -15.903407 -4.184223 5.206874 11.410055 1.477906 -4.069145 11.028028 2.514107 75.139877 -77.53692 46.915284 -145.100713 -1.467328 -178.666373 12.261043 41.141842 -4.312641 1.181769 3.17369 1.086819 -155.994509 43.115762 -149.152505 143.619179 38.235897 -148.079421 93.689262 14.171752 -77.275117 -152.422853 -10.508591 77.130876 21.434885 15.901344 -2.928866 151.040698 10.606281 -86.520604 155.894667 -7.494454 -76.035753 -4.382822 -7.435531 2.276643 -173.975915 -42.927214 -102.087525 -3.962489 -12.148403 1.885925 -10.753548 -23.248572 1.566752 145.105298 -1.069323 178.79206 -11.777566 23.128308 6.348924 56.556494 -50.756907 55.211174 156.815264 47.31906 148.56807 0.00163 0.000467 0.000343 -27.823369 -56.081746 -22.565849 -31.096279 62.766391 -71.970095 77.059405 -52.791204 -173.316554 0.00163 0.000467 0.000343 14.484709 5.49981 -74.598816 -69.259951 11.475742 -100.610742 145.429508 40.133587 126.11462
